<svg width="197" height="30" viewBox="0 0 197 30" fill="none" xmlns="http://www.w3.org/2000/svg">
<path d="M8.656 0.631998C12.0907 0.631998 14.5867 1.304 16.144 2.648C17.7227 3.97067 18.512 6.01867 18.512 8.792C18.512 11.544 17.7013 13.56 16.08 14.84C14.48 16.12 12.0267 16.76 8.72 16.76H5.744V23H0.752V0.631998H8.656ZM9.104 12.44C10.768 12.44 11.8987 12.1093 12.496 11.448C13.0933 10.7653 13.392 9.784 13.392 8.504C13.392 7.20267 12.9973 6.28533 12.208 5.752C11.44 5.19733 10.2347 4.92 8.592 4.92H5.744V12.44H9.104ZM30.9843 10.008C29.5549 10.008 28.4883 10.52 27.7843 11.544C27.0803 12.5467 26.7283 13.88 26.7283 15.544V23H21.9283V5.784H26.7283V8.056C27.3469 7.352 28.1149 6.75467 29.0323 6.264C29.9709 5.77333 30.9203 5.51733 31.8803 5.496L31.9123 10.008H30.9843ZM38.6745 14.392C38.6745 15.8 39.0692 16.952 39.8585 17.848C40.6692 18.7227 41.6932 19.16 42.9305 19.16C44.1892 19.16 45.2132 18.7227 46.0025 17.848C46.8132 16.952 47.2185 15.8 47.2185 14.392C47.2185 12.984 46.8132 11.832 46.0025 10.936C45.2132 10.04 44.1892 9.592 42.9305 9.592C41.6932 9.592 40.6692 10.04 39.8585 10.936C39.0692 11.832 38.6745 12.984 38.6745 14.392ZM52.0505 14.392C52.0505 16.888 51.1865 18.9893 49.4585 20.696C47.7305 22.4027 45.5545 23.256 42.9305 23.256C40.3278 23.256 38.1625 22.4027 36.4345 20.696C34.7065 18.9893 33.8425 16.888 33.8425 14.392C33.8425 11.896 34.7065 9.79467 36.4345 8.088C38.1625 6.36 40.3278 5.496 42.9305 5.496C45.5545 5.496 47.7305 6.36 49.4585 8.088C51.1865 9.79467 52.0505 11.896 52.0505 14.392ZM71.4237 13.72V23H66.5918V13.592C66.5918 12.2267 66.3784 11.224 65.9518 10.584C65.5464 9.944 64.8744 9.624 63.9358 9.624C63.0184 9.624 62.1971 9.976 61.4718 10.68C60.7678 11.3627 60.4158 12.376 60.4158 13.72V23H55.6158V5.784H60.4158V7.736C61.7384 6.24267 63.2531 5.496 64.9598 5.496C66.0478 5.496 67.0291 5.816 67.9038 6.456C68.7998 7.096 69.4718 7.87467 69.9198 8.792C70.5811 7.74667 71.4664 6.936 72.5758 6.36C73.7064 5.784 74.8371 5.496 75.9678 5.496C77.9944 5.496 79.6264 6.104 80.8638 7.32C82.1011 8.51467 82.7198 10.2533 82.7198 12.536V23H77.8878V13.592C77.8878 10.9467 76.9171 9.624 74.9758 9.624C74.0158 9.624 73.1838 9.976 72.4798 10.68C71.7758 11.3627 71.4237 12.376 71.4237 13.72ZM97.1005 5.496C99.1058 5.496 100.887 6.33867 102.444 8.024C104.023 9.688 104.812 11.7893 104.812 14.328C104.812 16.8667 104.023 18.9893 102.444 20.696C100.887 22.4027 99.0525 23.256 96.9405 23.256C94.8498 23.256 93.1645 22.4133 91.8845 20.728V29.208H87.0845V5.784H91.8845V7.704C93.3565 6.232 95.0952 5.496 97.1005 5.496ZM91.8205 14.424C91.8205 15.8107 92.2045 16.952 92.9725 17.848C93.7618 18.7227 94.7112 19.16 95.8205 19.16C96.9298 19.16 97.9005 18.7227 98.7325 17.848C99.5645 16.952 99.9805 15.8107 99.9805 14.424C99.9805 13.0373 99.5752 11.8747 98.7645 10.936C97.9538 9.99733 96.9832 9.528 95.8525 9.528C94.7218 9.528 93.7618 9.99733 92.9725 10.936C92.2045 11.8533 91.8205 13.016 91.8205 14.424ZM113.844 9.24V16.952C113.844 17.6133 114.014 18.136 114.356 18.52C114.697 18.8827 115.102 19.064 115.572 19.064C116.468 19.064 117.225 18.6587 117.844 17.848L119.636 21.208C118.142 22.5733 116.564 23.256 114.9 23.256C113.257 23.256 111.86 22.712 110.708 21.624C109.577 20.536 109.012 19.0533 109.012 17.176V9.24H106.996V5.784H109.012V0.631998H113.844V5.784H118.004V9.24H113.844ZM132.482 23H122.69V0.631998H131.394C132.908 0.631998 134.21 0.813332 135.298 1.176C136.407 1.53867 137.239 2.02933 137.794 2.648C138.796 3.8 139.298 5.10133 139.298 6.552C139.298 8.30133 138.732 9.60267 137.602 10.456C137.218 10.7547 136.951 10.9467 136.802 11.032C136.652 11.096 136.386 11.2133 136.002 11.384C137.388 11.6827 138.487 12.312 139.298 13.272C140.13 14.2107 140.546 15.384 140.546 16.792C140.546 18.3493 140.012 19.7253 138.946 20.92C137.708 22.3067 135.554 23 132.482 23ZM127.682 9.688H130.05C131.436 9.688 132.46 9.53867 133.122 9.24C133.804 8.94133 134.146 8.30133 134.146 7.32C134.146 6.31733 133.836 5.656 133.218 5.336C132.599 5.016 131.554 4.856 130.082 4.856H127.682V9.688ZM127.682 18.776H131.106C132.535 18.776 133.602 18.6053 134.306 18.264C135.031 17.9013 135.394 17.208 135.394 16.184C135.394 15.1387 135.01 14.456 134.242 14.136C133.495 13.7947 132.29 13.624 130.626 13.624H127.682V18.776ZM158.896 23H154.384V20.92C153.147 22.4773 151.611 23.256 149.776 23.256C147.963 23.256 146.437 22.7333 145.2 21.688C143.963 20.6213 143.344 19.2133 143.344 17.464C143.344 15.6933 143.984 14.3707 145.264 13.496C146.544 12.6213 148.293 12.184 150.512 12.184H154.096V12.088C154.096 10.2533 153.125 9.336 151.184 9.336C150.352 9.336 149.467 9.50667 148.528 9.848C147.611 10.168 146.832 10.5733 146.192 11.064L144.048 7.96C146.309 6.31733 148.891 5.496 151.792 5.496C153.883 5.496 155.589 6.01867 156.912 7.064C158.235 8.10933 158.896 9.76267 158.896 12.024V23ZM154.064 16.44V15.608H151.056C149.136 15.608 148.176 16.2053 148.176 17.4C148.176 18.0187 148.4 18.4987 148.848 18.84C149.317 19.16 149.979 19.32 150.832 19.32C151.685 19.32 152.432 19.064 153.072 18.552C153.733 18.0187 154.064 17.3147 154.064 16.44ZM178.184 20.504C176.243 22.3387 173.96 23.256 171.336 23.256C168.733 23.256 166.579 22.456 164.872 20.856C163.165 19.2347 162.312 17.0693 162.312 14.36C162.312 11.6507 163.176 9.496 164.904 7.896C166.653 6.296 168.712 5.496 171.08 5.496C173.448 5.496 175.453 6.21067 177.096 7.64C178.76 9.06933 179.592 11.032 179.592 13.528V16.088H167.048C167.197 17.0267 167.688 17.7947 168.52 18.392C169.352 18.9893 170.291 19.288 171.336 19.288C173.021 19.288 174.408 18.7227 175.496 17.592L178.184 20.504ZM174.728 12.664C174.621 11.64 174.237 10.8507 173.576 10.296C172.915 9.74133 172.104 9.464 171.144 9.464C170.205 9.464 169.341 9.752 168.552 10.328C167.763 10.904 167.304 11.6827 167.176 12.664H174.728ZM196.013 17.656C196.013 19.3413 195.384 20.696 194.125 21.72C192.888 22.744 191.309 23.256 189.389 23.256C188.109 23.256 186.776 23.032 185.389 22.584C184.003 22.1147 182.755 21.432 181.645 20.536L183.757 17.528C185.549 18.9147 187.459 19.608 189.485 19.608C190.104 19.608 190.595 19.4907 190.957 19.256C191.32 19 191.501 18.6693 191.501 18.264C191.501 17.8587 191.245 17.4853 190.733 17.144C190.243 16.8027 189.517 16.4827 188.557 16.184C187.619 15.8853 186.893 15.6293 186.381 15.416C185.891 15.2027 185.325 14.8933 184.685 14.488C183.384 13.6773 182.733 12.4827 182.733 10.904C182.733 9.304 183.373 8.00267 184.653 7C185.933 5.99733 187.587 5.496 189.613 5.496C191.64 5.496 193.667 6.17867 195.693 7.544L193.901 10.744C192.408 9.72 190.915 9.208 189.421 9.208C187.949 9.208 187.213 9.61333 187.213 10.424C187.213 10.872 187.448 11.224 187.917 11.48C188.387 11.736 189.165 12.0347 190.253 12.376C191.341 12.7173 192.109 12.984 192.557 13.176C193.027 13.3467 193.581 13.624 194.221 14.008C195.416 14.7333 196.013 15.9493 196.013 17.656Z" fill="url(#paint0_linear_105_171)"/>
<defs>
<linearGradient id="paint0_linear_105_171" x1="-7" y1="17.25" x2="86.8833" y2="-92.6622" gradientUnits="userSpaceOnUse">
<stop stop-color="#95D3F6"/>
<stop offset="1" stop-color="#BE7CEF"/>
</linearGradient>
</defs>
</svg>
